<?xml version="1.0" encoding="utf-8"?>
<!-- Generator: Adobe Illustrator 26.3.1, SVG Export Plug-In . SVG Version: 6.00 Build 0)  -->
<svg version="1.1" id="Layer_1" xmlns:sketch="http://www.bohemiancoding.com/sketch/ns"
	 xmlns="http://www.w3.org/2000/svg" xmlns:xlink="http://www.w3.org/1999/xlink" x="0px" y="0px" viewBox="0 0 42.7 42.5"
	 style="enable-background:new 0 0 42.7 42.5;" xml:space="preserve">
<style type="text/css">
	.st0{fill-rule:evenodd;clip-rule:evenodd;fill:#808080;}
	.st1{fill-rule:evenodd;clip-rule:evenodd;fill:#FFFFFF;}
	.st2{fill-rule:evenodd;clip-rule:evenodd;fill:none;stroke:#808080;stroke-width:2;stroke-miterlimit:10;}
</style>
<path sketch:type="MSShapeGroup" class="st0" d="M35.7,6.9C27.8-1,14.9-1,7,6.9s-7.9,20.8,0,28.7c4,4,9.1,5.9,14.3,5.9
	s10.4-2,14.3-5.9C43.7,27.6,43.7,14.8,35.7,6.9L35.7,6.9z"/>
<g sketch:type="MSPage">
	<path sketch:type="MSShapeGroup" class="st1" d="M35.7,6.9C27.8-1,14.9-1,7,6.9s-7.9,20.8,0,28.7c4,4,9.1,5.9,14.3,5.9
		s10.4-2,14.3-5.9C43.7,27.6,43.7,14.8,35.7,6.9L35.7,6.9z M33.6,33.4c-6.7,6.7-17.7,6.7-24.4,0S2.5,15.7,9.2,9
		c3.4-3.4,7.8-5.1,12.2-5.1S30.3,5.6,33.6,9C40.4,15.7,40.4,26.7,33.6,33.4L33.6,33.4z M27.9,14.7c-0.6-0.6-1.5-0.6-2.1,0l-4.4,4.4
		L17,14.7c-0.6-0.6-1.5-0.6-2.1,0c-0.6,0.6-0.6,1.5,0,2.1l4.4,4.4l-4.4,4.4c-0.6,0.6-0.6,1.5,0,2.1c0.3,0.3,0.7,0.4,1.1,0.4
		s0.8-0.1,1.1-0.4l4.4-4.4l4.4,4.4c0.3,0.3,0.7,0.4,1.1,0.4s0.8-0.1,1.1-0.4c0.6-0.6,0.6-1.5,0-2.1l-4.4-4.4l4.4-4.4
		C28.5,16.2,28.5,15.3,27.9,14.7L27.9,14.7z"/>
</g>
<path sketch:type="MSShapeGroup" class="st2" d="M35.7,6.9C27.8-1,14.9-1,7,6.9s-7.9,20.8,0,28.7c4,4,9.1,5.9,14.3,5.9
	s10.4-2,14.3-5.9C43.7,27.6,43.7,14.8,35.7,6.9L35.7,6.9z"/>
</svg>
